<?xml version="1.0" encoding="UTF-8" standalone="no"?>
<!-- Created with Inkscape (http://www.inkscape.org/) -->

<svg
   xmlns:dc="http://purl.org/dc/elements/1.1/"
   xmlns:cc="http://creativecommons.org/ns#"
   xmlns:rdf="http://www.w3.org/1999/02/22-rdf-syntax-ns#"
   xmlns:svg="http://www.w3.org/2000/svg"
   xmlns="http://www.w3.org/2000/svg"
   xmlns:sodipodi="http://sodipodi.sourceforge.net/DTD/sodipodi-0.dtd"
   xmlns:inkscape="http://www.inkscape.org/namespaces/inkscape"
   width="1920"
   height="860"
   viewBox="0 0 508 227.54167"
   version="1.1"
   id="svg8"
   inkscape:version="0.92.4 5da689c313, 2019-01-14"
   sodipodi:docname="sac-piece.svg"
   inkscape:export-filename="/home/fred/Documents/Codeurs en Seine/FPGA/background/template-slide4.png"
   inkscape:export-xdpi="192"
   inkscape:export-ydpi="192">
  <defs
     id="defs2">
    <inkscape:path-effect
       effect="lattice2"
       gridpoint0="716.33082,93.608143"
       gridpoint1="777.96625,93.608143"
       gridpoint2="716.33082,192.66976"
       gridpoint3="777.96625,192.66976"
       gridpoint4="731.73968,93.608143"
       gridpoint5="762.55739,93.608143"
       gridpoint6="731.73968,192.66976"
       gridpoint7="762.55739,192.66976"
       gridpoint8x9="747.14853,93.608143"
       gridpoint10x11="747.14853,192.66976"
       gridpoint12="716.33082,118.37355"
       gridpoint13="777.96625,118.37355"
       gridpoint14="716.33082,167.90436"
       gridpoint15="777.96625,167.90436"
       gridpoint16="729.07696,115.74326"
       gridpoint17="766.10158,111.93561"
       gridpoint18="723.66847,175.64326"
       gridpoint19="767.01147,178.0486"
       gridpoint20x21="747.45856,111.76945"
       gridpoint22x23="746.04009,177.2887"
       gridpoint24x26="716.33082,143.13895"
       gridpoint25x27="777.96625,143.13895"
       gridpoint28x30="723.23683,142.30408"
       gridpoint29x31="769.50192,142.9748"
       gridpoint32x33x34x35="747.14853,143.13895"
       id="path-effect4754"
       is_visible="true"
       horizontal_mirror="false"
       vertical_mirror="false"
       live_update="true" />
    <inkscape:path-effect
       effect="transform_2pts"
       start="716.33082,143.13895"
       end="765.83405,118.49976"
       id="path-effect1049"
       is_visible="true"
       first_knot="1"
       last_knot="2"
       helper_size="3"
       stretch="1"
       offset="0"
       elastic="false"
       from_original_width="true"
       flip_vertical="false"
       flip_horizontal="false"
       lock_lenght="false"
       lock_angle="false" />
    <inkscape:path-effect
       effect="envelope"
       id="path-effect1047"
       is_visible="true"
       yy="true"
       xx="true"
       bendpath1="m 716.33082,93.608143 h 61.63543"
       bendpath2="m 777.96625,93.608143 c 17.77227,35.359587 14.85507,67.996187 0,99.061617"
       bendpath3="m 716.33082,192.66976 h 61.63543"
       bendpath4="M 0,0 H 1"
       bendpath2-nodetypes="cc"
       bendpath4-nodetypes="cc" />
    <inkscape:path-effect
       effect="envelope"
       id="path-effect1045"
       is_visible="true"
       yy="true"
       xx="true"
       bendpath1="m 716.33082,93.608143 c 22.20796,-7.503291 43.18633,-9.458195 61.63543,0"
       bendpath2="m 777.96625,93.608143 c 20.01525,35.511287 22.46688,68.836917 0,99.061617"
       bendpath3="m 716.33082,192.66976 c 19.66713,7.99239 40.17979,8.2881 61.63543,0"
       bendpath4="m 716.33082,93.608143 c -51.15035,40.954247 -29.52387,70.620397 0,99.061617"
       bendpath1-nodetypes="cc"
       bendpath2-nodetypes="cc"
       bendpath3-nodetypes="cc"
       bendpath4-nodetypes="cc" />
    <inkscape:path-effect
       effect="bend_path"
       id="path-effect1318"
       is_visible="true"
       bendpath="m 716.33082,143.13895 h 61.63543"
       prop_scale="1.2291938"
       scale_y_rel="false"
       vertical="false" />
    <inkscape:path-effect
       effect="lattice2"
       gridpoint0="716.33082,93.608143"
       gridpoint1="777.96625,93.608143"
       gridpoint2="716.33082,192.66976"
       gridpoint3="777.96625,192.66976"
       gridpoint4="731.73968,93.608143"
       gridpoint5="762.55739,93.608143"
       gridpoint6="731.73968,192.66976"
       gridpoint7="762.55739,192.66976"
       gridpoint8x9="747.14853,93.608143"
       gridpoint10x11="747.14853,192.66976"
       gridpoint12="716.33082,118.37355"
       gridpoint13="777.96625,118.37355"
       gridpoint14="716.33082,167.90436"
       gridpoint15="777.96625,167.90436"
       gridpoint16="731.73968,118.37355"
       gridpoint17="762.55739,118.37355"
       gridpoint18="731.73968,167.90436"
       gridpoint19="762.55739,167.90436"
       gridpoint20x21="747.14853,118.37355"
       gridpoint22x23="747.14853,167.90436"
       gridpoint24x26="716.33082,143.13895"
       gridpoint25x27="777.96625,143.13895"
       gridpoint28x30="731.73968,143.13895"
       gridpoint29x31="762.55739,143.13895"
       gridpoint32x33x34x35="747.14853,143.13895"
       id="path-effect1314"
       is_visible="true"
       horizontal_mirror="false"
       vertical_mirror="false"
       live_update="true" />
    <marker
       inkscape:isstock="true"
       style="overflow:visible"
       id="marker12009"
       refX="0"
       refY="0"
       orient="auto"
       inkscape:stockid="TriangleOutS">
      <path
         transform="scale(0.2)"
         style="fill:#ffffff;fill-opacity:1;fill-rule:evenodd;stroke:#ffffff;stroke-width:1.00000003pt;stroke-opacity:1"
         d="M 5.77,0 -2.88,5 V -5 Z"
         id="path12007"
         inkscape:connector-curvature="0" />
    </marker>
    <marker
       inkscape:isstock="true"
       style="overflow:visible"
       id="marker11879"
       refX="0"
       refY="0"
       orient="auto"
       inkscape:stockid="TriangleInS">
      <path
         transform="scale(-0.2)"
         style="fill:#ffffff;fill-opacity:1;fill-rule:evenodd;stroke:#ffffff;stroke-width:1.00000003pt;stroke-opacity:1"
         d="M 5.77,0 -2.88,5 V -5 Z"
         id="path11877"
         inkscape:connector-curvature="0" />
    </marker>
    <marker
       inkscape:stockid="TriangleOutS"
       orient="auto"
       refY="0"
       refX="0"
       id="marker10848"
       style="overflow:visible"
       inkscape:isstock="true">
      <path
         id="path10846"
         d="M 5.77,0 -2.88,5 V -5 Z"
         style="fill:#ffffff;fill-opacity:1;fill-rule:evenodd;stroke:#ffffff;stroke-width:1.00000003pt;stroke-opacity:1"
         transform="scale(0.2)"
         inkscape:connector-curvature="0" />
    </marker>
    <marker
       inkscape:stockid="TriangleInS"
       orient="auto"
       refY="0"
       refX="0"
       id="marker10742"
       style="overflow:visible"
       inkscape:isstock="true">
      <path
         id="path10740"
         d="M 5.77,0 -2.88,5 V -5 Z"
         style="fill:#ffffff;fill-opacity:1;fill-rule:evenodd;stroke:#ffffff;stroke-width:1.00000003pt;stroke-opacity:1"
         transform="scale(-0.2)"
         inkscape:connector-curvature="0" />
    </marker>
    <marker
       inkscape:isstock="true"
       style="overflow:visible"
       id="marker10067"
       refX="0"
       refY="0"
       orient="auto"
       inkscape:stockid="TriangleOutS">
      <path
         transform="scale(0.2)"
         style="fill:#ffffff;fill-opacity:1;fill-rule:evenodd;stroke:#ffffff;stroke-width:1.00000003pt;stroke-opacity:1"
         d="M 5.77,0 -2.88,5 V -5 Z"
         id="path10065"
         inkscape:connector-curvature="0" />
    </marker>
    <marker
       inkscape:isstock="true"
       style="overflow:visible"
       id="marker9973"
       refX="0"
       refY="0"
       orient="auto"
       inkscape:stockid="TriangleInS">
      <path
         transform="scale(-0.2)"
         style="fill:#ffffff;fill-opacity:1;fill-rule:evenodd;stroke:#ffffff;stroke-width:1.00000003pt;stroke-opacity:1"
         d="M 5.77,0 -2.88,5 V -5 Z"
         id="path9971"
         inkscape:connector-curvature="0" />
    </marker>
    <marker
       inkscape:stockid="TriangleOutS"
       orient="auto"
       refY="0"
       refX="0"
       id="marker8858"
       style="overflow:visible"
       inkscape:isstock="true">
      <path
         id="path8856"
         d="M 5.77,0 -2.88,5 V -5 Z"
         style="fill:#ffffff;fill-opacity:1;fill-rule:evenodd;stroke:#ffffff;stroke-width:1.00000003pt;stroke-opacity:1"
         transform="scale(0.2)"
         inkscape:connector-curvature="0" />
    </marker>
    <marker
       inkscape:stockid="TriangleInS"
       orient="auto"
       refY="0"
       refX="0"
       id="marker8758"
       style="overflow:visible"
       inkscape:isstock="true">
      <path
         id="path8756"
         d="M 5.77,0 -2.88,5 V -5 Z"
         style="fill:#ffffff;fill-opacity:1;fill-rule:evenodd;stroke:#ffffff;stroke-width:1.00000003pt;stroke-opacity:1"
         transform="scale(-0.2)"
         inkscape:connector-curvature="0" />
    </marker>
    <marker
       inkscape:stockid="TriangleOutM"
       orient="auto"
       refY="0"
       refX="0"
       id="TriangleOutM"
       style="overflow:visible"
       inkscape:isstock="true">
      <path
         id="path6913"
         d="M 5.77,0 -2.88,5 V -5 Z"
         style="fill:#ffffff;fill-opacity:1;fill-rule:evenodd;stroke:#ffffff;stroke-width:1.00000003pt;stroke-opacity:1"
         transform="scale(0.4)"
         inkscape:connector-curvature="0" />
    </marker>
    <marker
       inkscape:stockid="TriangleInM"
       orient="auto"
       refY="0"
       refX="0"
       id="TriangleInM"
       style="overflow:visible"
       inkscape:isstock="true">
      <path
         id="path6904"
         d="M 5.77,0 -2.88,5 V -5 Z"
         style="fill:#ffffff;fill-opacity:1;fill-rule:evenodd;stroke:#ffffff;stroke-width:1.00000003pt;stroke-opacity:1"
         transform="scale(-0.4)"
         inkscape:connector-curvature="0" />
    </marker>
    <marker
       inkscape:isstock="true"
       style="overflow:visible"
       id="marker8296-9"
       refX="0"
       refY="0"
       orient="auto"
       inkscape:stockid="TriangleInS">
      <path
         inkscape:connector-curvature="0"
         transform="scale(-0.2)"
         style="fill:#ffffff;fill-opacity:1;fill-rule:evenodd;stroke:#ffffff;stroke-width:1.00000003pt;stroke-opacity:1"
         d="M 5.77,0 -2.88,5 V -5 Z"
         id="path8294-3" />
    </marker>
    <marker
       inkscape:isstock="true"
       style="overflow:visible"
       id="marker8372-6"
       refX="0"
       refY="0"
       orient="auto"
       inkscape:stockid="TriangleOutS">
      <path
         inkscape:connector-curvature="0"
         transform="scale(0.2)"
         style="fill:#ffffff;fill-opacity:1;fill-rule:evenodd;stroke:#ffffff;stroke-width:1.00000003pt;stroke-opacity:1"
         d="M 5.77,0 -2.88,5 V -5 Z"
         id="path8370-4" />
    </marker>
    <clipPath
       id="clipPath3694">
      <path
         id="path3696"
         d="m 0,774.03 594,0 0,-774 -594,0 0,774 z" />
    </clipPath>
    <clipPath
       id="clipPath3738">
      <path
         id="path3740"
         d="m 0,774.03 594,0 0,-774 -594,0 0,774 z" />
    </clipPath>
    <clipPath
       id="clipPath3044">
      <path
         id="path3046"
         d="m 0,0 1350,0 0,927 L 0,927 0,0" />
    </clipPath>
    <clipPath
       id="clipPath3050">
      <path
         id="path3052"
         d="m 0.01416,927.01401 1350.00004,0 L 1350.0142,0 0.01416,0 l 0,927.01401 z" />
    </clipPath>
    <clipPath
       id="clipPath3064">
      <path
         id="path3066"
         d="m 0,0 1350,0 0,927 L 0,927 0,0" />
    </clipPath>
    <clipPath
       id="clipPath3070">
      <path
         id="path3072"
         d="m 0.01416,927.01401 1350.00004,0 L 1350.0142,0 0.01416,0 l 0,927.01401 z" />
    </clipPath>
    <clipPath
       id="clipPath3082">
      <path
         id="path3084"
         d="m 685.50301,533.52901 605.99699,0 0,334.97099 -605.99699,0 0,-334.97099" />
    </clipPath>
    <clipPath
       id="clipPath3088">
      <path
         id="path3090"
         d="m 674.496,58.5 617.004,0 0,810 -617.004,0 0,-810" />
    </clipPath>
    <clipPath
       id="clipPath3094">
      <path
         id="path3096"
         d="m 0,0 1350,0 0,927 L 0,927 0,0" />
    </clipPath>
    <clipPath
       id="clipPath3100">
      <path
         id="path3102"
         d="m 0.01416,927.01401 1350.00004,0 L 1350.0142,0 0.01416,0 l 0,927.01401 z" />
    </clipPath>
    <clipPath
       id="clipPath3112">
      <path
         id="path3114"
         d="m 692.51401,207.504 598.98599,0 0,328.032 -598.98599,0 0,-328.032" />
    </clipPath>
    <clipPath
       id="clipPath3118">
      <path
         id="path3120"
         d="m 674.496,58.5 617.004,0 0,810 -617.004,0 0,-810" />
    </clipPath>
    <clipPath
       id="clipPath3124">
      <path
         id="path3126"
         d="m 0,0 1350,0 0,927 L 0,927 0,0" />
    </clipPath>
    <clipPath
       id="clipPath3130">
      <path
         id="path3132"
         d="m 0.01416,927.01401 1350.00004,0 L 1350.0142,0 0.01416,0 l 0,927.01401 z" />
    </clipPath>
    <clipPath
       id="clipPath3146">
      <path
         id="path3148"
         d="m 0,0 1350,0 0,927 L 0,927 0,0" />
    </clipPath>
    <clipPath
       id="clipPath3152">
      <path
         id="path3154"
         d="m 0.01416,927.01401 1350.00004,0 L 1350.0142,0 0.01416,0 l 0,927.01401 z" />
    </clipPath>
    <clipPath
       id="clipPath3188">
      <path
         id="path3190"
         d="m 674.496,58.5 617.004,0 0,810 -617.004,0 0,-810" />
    </clipPath>
    <clipPath
       id="clipPath3194">
      <path
         id="path3196"
         d="m 0,0 1350,0 0,927 L 0,927 0,0" />
    </clipPath>
    <clipPath
       id="clipPath3200">
      <path
         id="path3202"
         d="m 0.01416,927.01401 1350.00004,0 L 1350.0142,0 0.01416,0 l 0,927.01401 z" />
    </clipPath>
    <clipPath
       id="clipPath3212">
      <path
         id="path3214"
         d="m 0,0 1350,0 0,927 L 0,927 0,0" />
    </clipPath>
    <clipPath
       id="clipPath3218">
      <path
         id="path3220"
         d="m 0.01416,927.01401 1350.00004,0 L 1350.0142,0 0.01416,0 l 0,927.01401 z" />
    </clipPath>
    <clipPath
       id="clipPath3236">
      <path
         id="path3238"
         d="m 674.496,46.50301 629.001,0 0,833.99398 -629.001,0 0,-833.99398" />
    </clipPath>
    <clipPath
       id="clipPath3242">
      <path
         id="path3244"
         d="m 0,0 1350,0 0,927 L 0,927 0,0" />
    </clipPath>
    <clipPath
       id="clipPath3248">
      <path
         id="path3250"
         d="m 0.01416,927.01401 1350.00004,0 L 1350.0142,0 0.01416,0 l 0,927.01401 z" />
    </clipPath>
    <clipPath
       id="clipPath3262">
      <path
         id="path3264"
         d="m 0,0 1350,0 0,927 L 0,927 0,0" />
    </clipPath>
    <clipPath
       id="clipPath3268">
      <path
         id="path3270"
         d="m 0.01416,927.01401 1350.00004,0 L 1350.0142,0 0.01416,0 l 0,927.01401 z" />
    </clipPath>
  </defs>
  <sodipodi:namedview
     id="base"
     pagecolor="#252323"
     bordercolor="#666666"
     borderopacity="1.0"
     inkscape:pageopacity="1"
     inkscape:pageshadow="2"
     inkscape:zoom="0.9899495"
     inkscape:cx="506.66912"
     inkscape:cy="460.26598"
     inkscape:document-units="px"
     inkscape:current-layer="layer1"
     showgrid="false"
     units="px"
     borderlayer="true"
     inkscape:showpageshadow="true"
     inkscape:pagecheckerboard="false"
     inkscape:window-width="3840"
     inkscape:window-height="2063"
     inkscape:window-x="0"
     inkscape:window-y="27"
     inkscape:window-maximized="1"
     inkscape:snap-page="true"
     showguides="true"
     inkscape:guide-bbox="true"
     fit-margin-top="4"
     fit-margin-left="4"
     fit-margin-right="4"
     fit-margin-bottom="4"
     inkscape:snap-smooth-nodes="false"
     inkscape:snap-intersection-paths="false"
     inkscape:object-paths="false"
     inkscape:object-nodes="false" />
  <metadata
     id="metadata5">
    <rdf:RDF>
      <cc:Work
         rdf:about="">
        <dc:format>image/svg+xml</dc:format>
        <dc:type
           rdf:resource="http://purl.org/dc/dcmitype/StillImage" />
        <dc:title />
      </cc:Work>
    </rdf:RDF>
  </metadata>
  <g
     inkscape:label="Calque 1"
     inkscape:groupmode="layer"
     id="layer1"
     transform="translate(-184.66813,-55.65747)">
    <g
       aria-label="ALTERA"
       style="font-style:normal;font-variant:normal;font-weight:bold;font-stretch:normal;font-size:42.08455658px;line-height:0.89999998;font-family:'IBM Plex Sans';-inkscape-font-specification:'IBM Plex Sans Bold';text-align:center;letter-spacing:-3.34367943px;word-spacing:0px;text-anchor:middle;fill:#f5f1ed;fill-opacity:1;stroke:none;stroke-width:1.05211401"
       id="text26755">
      <path
         d="m 515.31887,158.47322 -2.10423,-6.98604 h -9.8057 l -2.10423,6.98604 h -6.48102 l 9.67945,-29.37502 h 7.9119 l 9.55319,29.37502 z m -6.94395,-23.56735 h -0.21042 l -3.24051,11.15241 h 6.73353 z"
         style="font-style:normal;font-variant:normal;font-weight:bold;font-stretch:normal;line-height:0.89999998;font-family:'IBM Plex Sans';-inkscape-font-specification:'IBM Plex Sans Bold';text-align:center;letter-spacing:-3.34367943px;text-anchor:middle;fill:#f5f1ed;fill-opacity:1;stroke-width:1.05211401"
         id="path26757" />
      <path
         d="M 522.72977,158.47322 V 129.0982 h 6.39685 v 23.69361 h 11.19449 v 5.68141 z"
         style="font-style:normal;font-variant:normal;font-weight:bold;font-stretch:normal;line-height:0.89999998;font-family:'IBM Plex Sans';-inkscape-font-specification:'IBM Plex Sans Bold';text-align:center;letter-spacing:-3.34367943px;text-anchor:middle;fill:#f5f1ed;fill-opacity:1;stroke-width:1.05211401"
         id="path26759" />
      <path
         d="m 550.78446,134.77962 v 23.6936 h -6.39686 v -23.6936 h -7.95398 v -5.68142 h 22.30482 v 5.68142 z"
         style="font-style:normal;font-variant:normal;font-weight:bold;font-stretch:normal;line-height:0.89999998;font-family:'IBM Plex Sans';-inkscape-font-specification:'IBM Plex Sans Bold';text-align:center;letter-spacing:-3.34367943px;text-anchor:middle;fill:#f5f1ed;fill-opacity:1;stroke-width:1.05211401"
         id="path26761" />
      <path
         d="M 559.7709,158.47322 V 129.0982 h 19.99016 v 5.68142 h -13.59331 v 6.01809 h 11.65742 v 5.63933 h -11.65742 v 6.35477 h 13.59331 v 5.68141 z"
         style="font-style:normal;font-variant:normal;font-weight:bold;font-stretch:normal;line-height:0.89999998;font-family:'IBM Plex Sans';-inkscape-font-specification:'IBM Plex Sans Bold';text-align:center;letter-spacing:-3.34367943px;text-anchor:middle;fill:#f5f1ed;fill-opacity:1;stroke-width:1.05211401"
         id="path26763" />
      <path
         d="M 588.38715,158.47322 H 581.9903 V 129.0982 h 13.92999 q 2.02005,0 3.66135,0.67335 1.6413,0.67336 2.77758,1.93589 1.17837,1.22045 1.80964,2.94592 0.63127,1.72547 0.63127,3.8297 0,2.988 -1.34671,5.21848 -1.30462,2.23048 -3.99803,3.24051 l 5.76558,11.53117 h -7.11229 l -5.13431,-10.77365 h -4.58722 z m 6.73353,-16.16047 q 1.43087,0 2.23048,-0.71544 0.84169,-0.75752 0.84169,-2.18839 v -1.85172 q 0,-1.43088 -0.84169,-2.14632 -0.79961,-0.75752 -2.23048,-0.75752 h -6.73353 v 7.65939 z"
         style="font-style:normal;font-variant:normal;font-weight:bold;font-stretch:normal;line-height:0.89999998;font-family:'IBM Plex Sans';-inkscape-font-specification:'IBM Plex Sans Bold';text-align:center;letter-spacing:-3.34367943px;text-anchor:middle;fill:#f5f1ed;fill-opacity:1;stroke-width:1.05211401"
         id="path26765" />
      <path
         d="m 625.10073,158.47322 -2.10423,-6.98604 h -9.8057 l -2.10422,6.98604 h -6.48103 L 614.285,129.0982 h 7.9119 l 9.55319,29.37502 z m -6.94395,-23.56735 h -0.21042 l -3.24051,11.15241 h 6.73353 z"
         style="font-style:normal;font-variant:normal;font-weight:bold;font-stretch:normal;line-height:0.89999998;font-family:'IBM Plex Sans';-inkscape-font-specification:'IBM Plex Sans Bold';text-align:center;letter-spacing:-3.34367943px;text-anchor:middle;fill:#f5f1ed;fill-opacity:1;stroke-width:1.05211401"
         id="path26767" />
    </g>
    <g
       id="g1139"
       transform="matrix(0.81778569,0,0,0.81778569,-35.010249,-231.82243)"
       style="fill:#f5f1ed;fill-opacity:1">
      <circle
         style="opacity:1;vector-effect:none;fill:#f5f1ed;fill-opacity:1;stroke:none;stroke-width:2.64583349;stroke-linecap:butt;stroke-linejoin:miter;stroke-miterlimit:4;stroke-dasharray:none;stroke-dashoffset:0;stroke-opacity:1"
         id="circle1135"
         cx="417.12347"
         cy="551.94019"
         r="66.145836" />
      <path
         style="opacity:1;vector-effect:none;fill:#f5f1ed;fill-opacity:1;stroke:none;stroke-width:2.64583349;stroke-linecap:butt;stroke-linejoin:miter;stroke-miterlimit:4;stroke-dasharray:none;stroke-dashoffset:0;stroke-opacity:1"
         d="m 401.24846,437.03543 h 31.75006 c 0,68.41371 50.27083,54.05062 50.27083,114.90476 H 350.97763 c 0,-60.85414 50.27083,-46.49105 50.27083,-114.90476 z"
         id="path1137"
         inkscape:connector-curvature="0"
         sodipodi:nodetypes="ccccc" />
    </g>
    <path
       sodipodi:nodetypes="ccccccccc"
       inkscape:connector-curvature="0"
       id="path1005"
       d="M 304.71614,109.09757 C 301.3317,94.563753 289.49062,81.810283 273.65256,69.898283 c 7.97155,4.71854 23.76526,5.39985 22.68134,14.79219 2.87452,-7.51204 4.5212,-9.55218 8.30854,-12.07566 5.75391,2.52998 9.81673,4.70232 10.76928,11.0734 3.59322,-7.03031 3.74522,-4.29519 7.96758,-6.58043 4.45283,2.74165 3.48916,6.1171 2.46536,12.08029 4.1069,-5.38751 13.83504,-5.42506 18.24367,-6.90302 -13.49781,9.82086 -21.90271,19.269067 -21.94172,28.105137"
       style="opacity:1;vector-effect:none;fill:#f5f1ed;fill-opacity:1;stroke:none;stroke-width:0.72387743;stroke-linecap:butt;stroke-linejoin:miter;stroke-miterlimit:4;stroke-dasharray:none;stroke-dashoffset:0;stroke-opacity:1" />
    <path
       inkscape:transform-center-y="-6.9217485"
       inkscape:transform-center-x="1.6425562e-06"
       d="m 150.16678,371.83912 -23.97767,13.84351 -23.97767,-13.84351 0,-27.68703 23.97767,-13.84351 23.97767,13.84351 z"
       inkscape:randomized="0"
       inkscape:rounded="0"
       inkscape:flatsided="true"
       sodipodi:arg2="1.0471976"
       sodipodi:arg1="0.52359878"
       sodipodi:r2="9.2937307"
       sodipodi:r1="27.687023"
       sodipodi:cy="357.99561"
       sodipodi:cx="126.18911"
       sodipodi:sides="6"
       id="path892"
       style="opacity:1;vector-effect:none;fill:#f5f1ed;fill-opacity:1;stroke:none;stroke-width:1.10980964;stroke-linecap:butt;stroke-linejoin:miter;stroke-miterlimit:4;stroke-dasharray:none;stroke-dashoffset:0;stroke-opacity:1"
       sodipodi:type="star" />
    <path
       sodipodi:type="star"
       style="opacity:1;vector-effect:none;fill:#dad2bc;fill-opacity:1;stroke:none;stroke-width:1.10980964;stroke-linecap:butt;stroke-linejoin:miter;stroke-miterlimit:4;stroke-dasharray:none;stroke-dashoffset:0;stroke-opacity:1"
       id="path894"
       sodipodi:sides="6"
       sodipodi:cx="189.18513"
       sodipodi:cy="357.99561"
       sodipodi:r1="27.687023"
       sodipodi:r2="9.2937307"
       sodipodi:arg1="0.52359878"
       sodipodi:arg2="1.0471976"
       inkscape:flatsided="true"
       inkscape:rounded="0"
       inkscape:randomized="0"
       d="m 213.1628,371.83912 -23.97767,13.84351 -23.97766,-13.84351 0,-27.68703 23.97767,-13.84351 23.97766,13.84351 z"
       inkscape:transform-center-x="1.6425562e-06"
       inkscape:transform-center-y="-6.9217485" />
    <path
       inkscape:transform-center-y="-6.9217485"
       inkscape:transform-center-x="1.6425562e-06"
       d="m 273.32404,372.21711 -23.97767,13.84351 -23.97766,-13.84351 0,-27.68703 23.97766,-13.84351 23.97767,13.84351 z"
       inkscape:randomized="0"
       inkscape:rounded="0"
       inkscape:flatsided="true"
       sodipodi:arg2="1.0471976"
       sodipodi:arg1="0.52359878"
       sodipodi:r2="9.2937307"
       sodipodi:r1="27.687023"
       sodipodi:cy="358.3736"
       sodipodi:cx="249.34637"
       sodipodi:sides="6"
       id="path896"
       style="opacity:1;vector-effect:none;fill:#a99985;fill-opacity:1;stroke:none;stroke-width:1.10980964;stroke-linecap:butt;stroke-linejoin:miter;stroke-miterlimit:4;stroke-dasharray:none;stroke-dashoffset:0;stroke-opacity:1"
       sodipodi:type="star" />
    <path
       sodipodi:type="star"
       style="opacity:1;vector-effect:none;fill:#70798c;fill-opacity:1;stroke:none;stroke-width:1.10980964;stroke-linecap:butt;stroke-linejoin:miter;stroke-miterlimit:4;stroke-dasharray:none;stroke-dashoffset:0;stroke-opacity:1"
       id="path11470"
       sodipodi:sides="6"
       sodipodi:cx="66.85527"
       sodipodi:cy="357.99561"
       sodipodi:r1="27.687023"
       sodipodi:r2="9.2937307"
       sodipodi:arg1="0.52359878"
       sodipodi:arg2="1.0471976"
       inkscape:flatsided="true"
       inkscape:rounded="0"
       inkscape:randomized="0"
       d="m 90.832936,371.83912 -23.977666,13.84351 -23.977665,-13.84351 0,-27.68703 23.977666,-13.84351 23.977665,13.84351 z"
       inkscape:transform-center-x="1.6425562e-06"
       inkscape:transform-center-y="-6.9217485" />
    <g
       id="g993"
       transform="matrix(0.01119343,0,0,-0.01119343,198.69102,164.84735)"
       style="fill:#a99985;fill-opacity:1;stroke:none">
      <path
         id="path991"
         d="M 8208.9091,6682.5354 C 8027.048,6582.6288 7737,6335 7571,6105 c -63,-88 -178,-248 -255,-355 -264,-367 -571,-765 -656,-851 -121,-123 -290,-229 -470,-293 -112,-41 -409,-112 -540,-129 -63,-9 -227,-18 -365,-21 -251,-6 -499,-17 -760,-36 -311,-21 -458,-30 -625,-35 -96,-3 -229,-10 -295,-15 -478,-38 -2322.7786,43.5495 -3634.778639,44.5495 H -1252.7786 V 2160 -141.82427 l 28,6 c 15,3 34,8 42,10 17,4 469.99996,69.000002 799.99996,114.000002 C -258.77864,5.1757324 1311,196 1575,240 c 264,43 541,88 615,99 284,45 846,163 1055,221 112,32 587,147 745,180 923,198 1441,285 1875,313 200,13 507,8 625,-11 36,-6 177,-23 314,-37 266,-28 572,-84 736,-134 305,-94 455,-137 715,-204 323,-84 342,-88 540,-117 221,-33 414,-37 565,-12 84,14 199,23 351,27 l 226,7 c 454.011,-7.81369 511.219,-12.69543 738,28 33,7 110,30 171,51 61,21 135,41 165,45 67,8 136,46 220,121 100,89 138,135 254,308 59,88 122,178 140,200 37,46 98,135 137,203 51,89 64,243 28,347 -11,32 -20,64 -20,71 0,6 26,27 58,44 31,18 85,55 119,82 68,54 247,237 273,281 10,16 27,35 39,43 26,18 108,138 145,213 20,38 32,87 44,168 31,224 -14,383 -145,509 -34,33 -63,63 -63,67 0,3 30,20 68,37 137,65 154,74 221,131 71,60 148,150 199,234 51,85 66,153 65,305 -1,198 -24,274 -134,430 -101,143 -202,228 -291,244 -21,4 -38,11 -38,15 0,5 30,27 68,49 84,50 190,147 230,209 51,80 66,151 58,271 -18,272 -62,370 -244,543 -192,183 -394,327 -505,360 -159,47 -385,75 -592,73 -107,-1 -242,-28 -324,-65 -77,-35 -140,-35 -276,-1 -66,17 -147,36 -180,42 -33,6 -107,28 -165,48 l -116.939,22.0767 L 10088,6312 c -135,-1 -209,1 -213,8 -1168.7817,247.9648 -1180.9684,620.6458 -1666.0909,362.5354 z"
         inkscape:connector-curvature="0"
         style="fill:#a99985;fill-opacity:1"
         sodipodi:nodetypes="cccccccccccccccccccccccccccccccsccccccscscccccsccccccsccccccccsccccc" />
    </g>
    <path
       style="fill:#a99985;fill-opacity:1;stroke:none;stroke-width:0.03527778"
       d="m 605.51275,152.31875 c -4.62963,-0.3896 -9.17207,0.91864 -12.93082,3.6125 -1.82338,1.26024 -4.24829,0.34125 -6.34233,0.62084 -4.07133,0.54325 -7.82902,-0.68969 -11.59616,-1.87164 -5.02457,-0.87532 -9.56133,1.02171 -14.18944,2.57203 -6.6819,2.51219 -13.88793,1.28185 -20.74508,0.36541 -4.57272,-0.25549 -9.11882,1.37568 -13.6519,-0.011 -4.70926,-0.90171 -9.88226,-2.84409 -14.48011,-0.5472 -3.88033,-0.41832 -13.05992,3.7116 -7.55447,7.7126 4.89675,0.86574 8.59663,3.48718 13.78107,3.38878 7.03789,1.40126 14.0005,3.37136 21.14015,4.1249 6.13913,0.61498 12.26664,1.38305 18.45371,1.20417 5.3403,0.67329 10.29166,3.27257 15.72924,3.62719 10.89298,1.33972 21.98487,2.69454 32.21712,6.88279 3.7406,1.95801 8.21296,3.59307 10.65983,7.16045 5.48285,-2.20012 12.58686,-3.64728 14.93713,-9.82202 0.82701,-3.35051 5.27733,-9.04153 4.31162,-10.74894 -3.99999,-2.10047 -6.42109,-6.26416 -9.59347,-9.3852 -3.24451,-4.84454 -8.50236,-8.18616 -14.37029,-8.59921 -1.91632,-0.22396 -3.84781,-0.28486 -5.7758,-0.28649 z"
       id="path1092"
       inkscape:connector-curvature="0" />
    <path
       style="fill:#dad2bc;fill-opacity:1;stroke:none;stroke-width:0.03527778"
       d="m 615.67283,190.87713 c -3.6032,8.05361 -7.44837,16.32358 -7.88809,25.27971 -2.54995,5.1347 -0.71223,12.82235 5.28047,14.46106 13.68638,8.94785 26.83897,19.24685 42.46068,24.65285 9.45842,4.03266 17.81085,10.16344 26.73233,15.20523 3.29987,1.38765 8.68891,6.36236 10.81402,5.56917 0,-24.03336 0,-48.06673 0,-72.10009 -10.85827,-8.25906 -23.68306,-13.54541 -34.19473,-22.31188 -5.22112,-3.72248 -10.04282,-7.98638 -14.92375,-12.09952 -5.9795,-3.18963 -11.44526,2.5118 -15.44752,6.31292 -4.91839,4.40267 -9.52869,9.27525 -12.83341,15.03055 z"
       id="path1110"
       inkscape:connector-curvature="0" />
    <text
       xml:space="preserve"
       style="font-style:normal;font-variant:normal;font-weight:bold;font-stretch:normal;font-size:34.53340149px;line-height:0.89999998;font-family:'IBM Plex Sans';-inkscape-font-specification:'IBM Plex Sans Bold';text-align:center;letter-spacing:0px;word-spacing:0px;text-anchor:middle;fill:#70798c;fill-opacity:1;stroke:none;stroke-width:0.86333507"
       x="305.89453"
       y="204.28389"
       id="text1163"><tspan
         sodipodi:role="line"
         id="tspan1161"
         x="305.89453"
         y="204.28389"
         style="font-style:normal;font-variant:normal;font-weight:bold;font-stretch:normal;line-height:0.89999998;font-family:'IBM Plex Sans';-inkscape-font-specification:'IBM Plex Sans Bold';text-align:center;text-anchor:middle;fill:#70798c;fill-opacity:1;stroke-width:0.86333507">16,7</tspan></text>
    <text
       id="text5031"
       y="225.339"
       x="305.79062"
       style="font-style:normal;font-variant:normal;font-weight:bold;font-stretch:normal;font-size:21.22002792px;line-height:0.89999998;font-family:'IBM Plex Sans Condensed';-inkscape-font-specification:'IBM Plex Sans Condensed, Bold';text-align:center;letter-spacing:0px;word-spacing:0px;text-anchor:middle;fill:#70798c;fill-opacity:1;stroke:none;stroke-width:0.53050071"
       xml:space="preserve"><tspan
         id="tspan4906"
         style="font-style:normal;font-variant:normal;font-weight:bold;font-stretch:normal;line-height:0.89999998;font-family:'IBM Plex Sans';-inkscape-font-specification:'IBM Plex Sans Bold';text-align:center;text-anchor:middle;fill:#70798c;fill-opacity:1;stroke-width:0.53050071"
         y="225.339"
         x="305.79062"
         sodipodi:role="line">milliards</tspan></text>
    <text
       id="text5037"
       y="245.98053"
       x="306.00211"
       style="font-style:normal;font-variant:normal;font-weight:bold;font-stretch:normal;font-size:21.22002792px;line-height:0.89999998;font-family:'IBM Plex Sans';-inkscape-font-specification:'IBM Plex Sans Bold';text-align:center;letter-spacing:-0.15912455px;word-spacing:0px;text-anchor:middle;fill:#70798c;fill-opacity:1;stroke:none;stroke-width:0.53050071"
       xml:space="preserve"><tspan
         id="tspan4925"
         style="font-style:normal;font-variant:normal;font-weight:bold;font-stretch:normal;line-height:0.89999998;font-family:'IBM Plex Sans Condensed';-inkscape-font-specification:'IBM Plex Sans Condensed, Bold';text-align:center;letter-spacing:-0.15912455px;text-anchor:middle;fill:#70798c;fill-opacity:1;stroke-width:0.53050071"
         y="245.98053"
         x="305.92255"
         sodipodi:role="line">de dollars</tspan></text>
    <g
       transform="matrix(0.53477954,0,0,-0.53477954,218.43312,177.47634)"
       id="g3184"
       style="fill:#000000">
      <g
         clip-path="url(#clipPath3188)"
         id="g3186"
         style="fill:#000000">
        <g
           clip-path="url(#clipPath3194)"
           id="g3192"
           style="fill:#000000">
          <g
             clip-path="url(#clipPath3200)"
             id="g3198"
             style="fill:#000000">
            <g
               id="g3204"
               style="fill:#000000" />
          </g>
        </g>
      </g>
    </g>
    <path
       inkscape:connector-curvature="0"
       style="opacity:1;vector-effect:none;fill:#70798c;fill-opacity:1;stroke:none;stroke-width:0.63401824;stroke-linecap:butt;stroke-linejoin:miter;stroke-miterlimit:4;stroke-dasharray:none;stroke-dashoffset:0;stroke-opacity:1"
       d="m 424.53856,238.6367 v 16.84668 h -28.25914 v 27.71563 h 28.25914 v 1.3e-4 h 28.25913 v -1.3e-4 h 28.25913 V 266.71454 H 452.79769 V 238.6367 Z"
       id="rect5234" />
    <text
       id="text5246"
       y="281.06125"
       x="410.46683"
       style="font-style:normal;font-variant:normal;font-weight:bold;font-stretch:normal;font-size:17.49122429px;line-height:0.89999998;font-family:'IBM Plex Sans';-inkscape-font-specification:'IBM Plex Sans Bold';text-align:center;letter-spacing:0px;word-spacing:0px;text-anchor:middle;fill:#dad2bc;fill-opacity:1;stroke:none;stroke-width:0.43728063"
       xml:space="preserve"><tspan
         style="font-style:normal;font-variant:normal;font-weight:bold;font-stretch:normal;line-height:0.89999998;font-family:'IBM Plex Sans';-inkscape-font-specification:'IBM Plex Sans Bold';text-align:center;text-anchor:middle;fill:#dad2bc;fill-opacity:1;stroke-width:0.43728063"
         y="281.06125"
         x="410.46683"
         id="tspan5244"
         sodipodi:role="line">2</tspan></text>
    <text
       xml:space="preserve"
       style="font-style:normal;font-variant:normal;font-weight:bold;font-stretch:normal;font-size:17.49122429px;line-height:0.89999998;font-family:'IBM Plex Sans';-inkscape-font-specification:'IBM Plex Sans Bold';text-align:center;letter-spacing:0px;word-spacing:0px;text-anchor:middle;fill:#dad2bc;fill-opacity:1;stroke:none;stroke-width:0.43728063"
       x="438.53354"
       y="281.06125"
       id="text5250"><tspan
         sodipodi:role="line"
         id="tspan5248"
         x="438.53354"
         y="281.06125"
         style="font-style:normal;font-variant:normal;font-weight:bold;font-stretch:normal;line-height:0.89999998;font-family:'IBM Plex Sans';-inkscape-font-specification:'IBM Plex Sans Bold';text-align:center;text-anchor:middle;fill:#dad2bc;fill-opacity:1;stroke-width:0.43728063">1</tspan></text>
    <text
       id="text5254"
       y="281.06125"
       x="467.31738"
       style="font-style:normal;font-variant:normal;font-weight:bold;font-stretch:normal;font-size:17.49122429px;line-height:0.89999998;font-family:'IBM Plex Sans';-inkscape-font-specification:'IBM Plex Sans Bold';text-align:center;letter-spacing:0px;word-spacing:0px;text-anchor:middle;fill:#dad2bc;fill-opacity:1;stroke:none;stroke-width:0.43728063"
       xml:space="preserve"><tspan
         style="font-style:normal;font-variant:normal;font-weight:bold;font-stretch:normal;line-height:0.89999998;font-family:'IBM Plex Sans';-inkscape-font-specification:'IBM Plex Sans Bold';text-align:center;text-anchor:middle;fill:#dad2bc;fill-opacity:1;stroke-width:0.43728063"
         y="281.06125"
         x="467.31738"
         id="tspan5252"
         sodipodi:role="line">3</tspan></text>
    <g
       id="g26751"
       transform="matrix(1.2129291,0,0,1.2129291,-162.27834,-40.125722)">
      <text
         id="text26744"
         y="140.2861"
         x="371.70148"
         style="font-style:normal;font-variant:normal;font-weight:bold;font-stretch:normal;font-size:12.82081795px;line-height:1.25;font-family:'IBM Plex Sans';-inkscape-font-specification:'IBM Plex Sans Bold';letter-spacing:0px;word-spacing:0px;fill:#f5f1ed;fill-opacity:1;stroke:none;stroke-width:0.32052046"
         xml:space="preserve"><tspan
           style="font-style:normal;font-variant:normal;font-weight:bold;font-stretch:normal;font-family:'IBM Plex Sans';-inkscape-font-specification:'IBM Plex Sans Bold';fill:#f5f1ed;fill-opacity:1;stroke-width:0.32052046"
           y="140.2861"
           x="371.70148"
           id="tspan26742"
           sodipodi:role="line">intel</tspan></text>
      <ellipse
         ry="12.121309"
         rx="19.61269"
         cy="136.35539"
         cx="385.56247"
         id="path26746"
         style="opacity:1;vector-effect:none;fill:none;fill-opacity:1;stroke:#f5f1ed;stroke-width:2.11666679;stroke-linecap:butt;stroke-linejoin:miter;stroke-miterlimit:4;stroke-dasharray:none;stroke-dashoffset:0;stroke-opacity:1" />
    </g>
    <text
       id="text26772"
       y="237.96895"
       x="438.67487"
       style="font-style:normal;font-variant:normal;font-weight:bold;font-stretch:normal;font-size:16.25141907px;line-height:0.89999998;font-family:'IBM Plex Sans';-inkscape-font-specification:'IBM Plex Sans Bold';text-align:center;letter-spacing:0px;word-spacing:0px;text-anchor:middle;fill:#f5f1ed;fill-opacity:1;stroke:none;stroke-width:0.40628549"
       xml:space="preserve"><tspan
         style="font-style:normal;font-variant:normal;font-weight:bold;font-stretch:normal;line-height:0.89999998;font-family:'IBM Plex Sans';-inkscape-font-specification:'IBM Plex Sans Bold';text-align:center;text-anchor:middle;fill:#f5f1ed;fill-opacity:1;stroke-width:0.40628549"
         y="237.96895"
         x="438.67487"
         id="tspan26770"
         sodipodi:role="line">XILINX</tspan></text>
    <text
       xml:space="preserve"
       style="font-style:normal;font-variant:normal;font-weight:bold;font-stretch:normal;font-size:8.35069752px;line-height:0.89999998;font-family:'IBM Plex Sans';-inkscape-font-specification:'IBM Plex Sans Bold';text-align:center;letter-spacing:0px;word-spacing:0px;text-anchor:middle;fill:#f5f1ed;fill-opacity:1;stroke:none;stroke-width:0.20876744"
       x="466.81802"
       y="258.9935"
       id="text26776"><tspan
         sodipodi:role="line"
         id="tspan26774"
         x="466.81802"
         y="258.9935"
         style="font-style:normal;font-variant:normal;font-weight:bold;font-stretch:normal;line-height:0.89999998;font-family:'IBM Plex Sans';-inkscape-font-specification:'IBM Plex Sans Bold';text-align:center;text-anchor:middle;fill:#f5f1ed;fill-opacity:1;stroke-width:0.20876744">MICRO</tspan></text>
    <text
       id="text26913"
       y="266.50912"
       x="466.81802"
       style="font-style:normal;font-variant:normal;font-weight:bold;font-stretch:normal;font-size:8.35069752px;line-height:0.89999998;font-family:'IBM Plex Sans';-inkscape-font-specification:'IBM Plex Sans Bold';text-align:center;letter-spacing:0px;word-spacing:0px;text-anchor:middle;fill:#f5f1ed;fill-opacity:1;stroke:none;stroke-width:0.20876744"
       xml:space="preserve"><tspan
         id="tspan26778"
         style="font-style:normal;font-variant:normal;font-weight:bold;font-stretch:normal;line-height:0.89999998;font-family:'IBM Plex Sans';-inkscape-font-specification:'IBM Plex Sans Bold';text-align:center;text-anchor:middle;fill:#f5f1ed;fill-opacity:1;stroke-width:0.20876744"
         y="266.50912"
         x="466.81802"
         sodipodi:role="line">SEMI</tspan></text>
  </g>
</svg>
