<?xml version="1.0" encoding="UTF-8" standalone="no"?>
<!-- Created with Inkscape (http://www.inkscape.org/) -->

<svg
   xmlns:dc="http://purl.org/dc/elements/1.1/"
   xmlns:cc="http://creativecommons.org/ns#"
   xmlns:rdf="http://www.w3.org/1999/02/22-rdf-syntax-ns#"
   xmlns:svg="http://www.w3.org/2000/svg"
   xmlns="http://www.w3.org/2000/svg"
   xmlns:sodipodi="http://sodipodi.sourceforge.net/DTD/sodipodi-0.dtd"
   xmlns:inkscape="http://www.inkscape.org/namespaces/inkscape"
   width="1920"
   height="1080"
   viewBox="0 0 507.99999 285.75001"
   version="1.1"
   id="svg8"
   inkscape:version="0.92.4 5da689c313, 2019-01-14"
   sodipodi:docname="template-slide4.svg"
   inkscape:export-filename="/home/fred/Documents/Codeurs en Seine/FPGA/background/template-slide4.png"
   inkscape:export-xdpi="192"
   inkscape:export-ydpi="192">
  <defs
     id="defs2" />
  <sodipodi:namedview
     id="base"
     pagecolor="#252323"
     bordercolor="#666666"
     borderopacity="1.0"
     inkscape:pageopacity="1"
     inkscape:pageshadow="2"
     inkscape:zoom="0.7"
     inkscape:cx="1036.6341"
     inkscape:cy="273.95195"
     inkscape:document-units="px"
     inkscape:current-layer="layer1"
     showgrid="false"
     units="px"
     borderlayer="true"
     inkscape:showpageshadow="true"
     inkscape:pagecheckerboard="false"
     inkscape:window-width="3840"
     inkscape:window-height="2063"
     inkscape:window-x="0"
     inkscape:window-y="27"
     inkscape:window-maximized="1"
     inkscape:snap-page="true" />
  <metadata
     id="metadata5">
    <rdf:RDF>
      <cc:Work
         rdf:about="">
        <dc:format>image/svg+xml</dc:format>
        <dc:type
           rdf:resource="http://purl.org/dc/dcmitype/StillImage" />
        <dc:title></dc:title>
      </cc:Work>
    </rdf:RDF>
  </metadata>
  <g
     inkscape:label="Calque 1"
     inkscape:groupmode="layer"
     id="layer1"
     transform="translate(0,-11.249992)">
    <rect
       style="opacity:1;vector-effect:none;fill:#252323;fill-opacity:1;stroke:none;stroke-width:0.67562813;stroke-linecap:butt;stroke-linejoin:miter;stroke-miterlimit:4;stroke-dasharray:none;stroke-dashoffset:0;stroke-opacity:1"
       id="rect5395"
       width="508"
       height="285.75"
       x="-2.0194318e-06"
       y="11.249992" />
    <path
       sodipodi:type="star"
       style="opacity:1;vector-effect:none;fill:#70798c;fill-opacity:1;stroke:none;stroke-width:1.10980964;stroke-linecap:butt;stroke-linejoin:miter;stroke-miterlimit:4;stroke-dasharray:none;stroke-dashoffset:0;stroke-opacity:1"
       id="path4546"
       sodipodi:sides="6"
       sodipodi:cx="63.193081"
       sodipodi:cy="357.99561"
       sodipodi:r1="27.687023"
       sodipodi:r2="9.2937307"
       sodipodi:arg1="0.52359878"
       sodipodi:arg2="1.0471976"
       inkscape:flatsided="true"
       inkscape:rounded="0"
       inkscape:randomized="0"
       d="m 87.170746,371.83912 -23.977665,13.84351 -23.977666,-13.84351 10e-7,-27.68703 23.977665,-13.84351 23.977665,13.84351 z"
       inkscape:transform-center-x="1.6425562e-06"
       inkscape:transform-center-y="-6.9217485" />
    <path
       inkscape:transform-center-y="-6.9217485"
       inkscape:transform-center-x="1.6425562e-06"
       d="m 150.16678,371.83912 -23.97767,13.84351 -23.97767,-13.84351 0,-27.68703 23.97767,-13.84351 23.97767,13.84351 z"
       inkscape:randomized="0"
       inkscape:rounded="0"
       inkscape:flatsided="true"
       sodipodi:arg2="1.0471976"
       sodipodi:arg1="0.52359878"
       sodipodi:r2="9.2937307"
       sodipodi:r1="27.687023"
       sodipodi:cy="357.99561"
       sodipodi:cx="126.18911"
       sodipodi:sides="6"
       id="path892"
       style="opacity:1;vector-effect:none;fill:#f5f1ed;fill-opacity:1;stroke:none;stroke-width:1.10980964;stroke-linecap:butt;stroke-linejoin:miter;stroke-miterlimit:4;stroke-dasharray:none;stroke-dashoffset:0;stroke-opacity:1"
       sodipodi:type="star" />
    <path
       sodipodi:type="star"
       style="opacity:1;vector-effect:none;fill:#dad2bc;fill-opacity:1;stroke:none;stroke-width:1.10980964;stroke-linecap:butt;stroke-linejoin:miter;stroke-miterlimit:4;stroke-dasharray:none;stroke-dashoffset:0;stroke-opacity:1"
       id="path894"
       sodipodi:sides="6"
       sodipodi:cx="189.18514"
       sodipodi:cy="357.99561"
       sodipodi:r1="27.687023"
       sodipodi:r2="9.2937307"
       sodipodi:arg1="0.52359878"
       sodipodi:arg2="1.0471976"
       inkscape:flatsided="true"
       inkscape:rounded="0"
       inkscape:randomized="0"
       d="m 213.1628,371.83912 -23.97767,13.84351 -23.97766,-13.84351 0,-27.68703 23.97767,-13.84351 23.97766,13.84351 z"
       inkscape:transform-center-x="1.6425562e-06"
       inkscape:transform-center-y="-6.9217485" />
    <path
       inkscape:transform-center-y="-6.9217485"
       inkscape:transform-center-x="1.6425562e-06"
       d="m 276.15883,371.83912 -23.97766,13.84351 -23.97767,-13.84351 0,-27.68703 23.97767,-13.84351 23.97766,13.84351 z"
       inkscape:randomized="0"
       inkscape:rounded="0"
       inkscape:flatsided="true"
       sodipodi:arg2="1.0471976"
       sodipodi:arg1="0.52359878"
       sodipodi:r2="9.2937307"
       sodipodi:r1="27.687023"
       sodipodi:cy="357.99561"
       sodipodi:cx="252.18116"
       sodipodi:sides="6"
       id="path896"
       style="opacity:1;vector-effect:none;fill:#a99985;fill-opacity:1;stroke:none;stroke-width:1.10980964;stroke-linecap:butt;stroke-linejoin:miter;stroke-miterlimit:4;stroke-dasharray:none;stroke-dashoffset:0;stroke-opacity:1"
       sodipodi:type="star" />
    <path
       id="use5061"
       style="opacity:1;vector-effect:none;fill:#70798c;fill-opacity:1;stroke:none;stroke-width:0.90436262;stroke-linecap:butt;stroke-linejoin:miter;stroke-miterlimit:4;stroke-dasharray:none;stroke-dashoffset:0;stroke-opacity:1"
       d="m 683.86284,274.14721 -19.53893,11.28082 -19.53892,-11.28082 v -22.56163 l 19.53892,-11.28081 19.53893,11.28081 z m -39.07783,0 -19.53894,11.28082 -19.53895,-11.28082 v -22.56163 l 19.53895,-11.28081 19.53894,11.28081 z m -39.0779,0 -19.53895,11.28082 -19.53896,-11.28082 v -22.56163 l 19.53896,-11.28081 19.53895,11.28081 z m -39.07788,0 -19.53891,11.28082 -19.53896,-11.28082 v -22.56163 l 19.53896,-11.28081 19.53891,11.28081 z m -39.0779,0 -19.53892,11.28082 -19.53895,-11.28082 v -22.56163 l 19.53895,-11.28081 19.53892,11.28081 z m -39.07784,0 -19.53893,11.28082 -19.53896,-11.28082 v -22.56163 l 19.53896,-11.28081 19.53893,11.28081 z m -39.0779,0 -19.53893,11.28082 -19.53896,-11.28082 v -22.56163 l 19.53896,-11.28081 19.53893,11.28081 z m -39.07787,0 -19.53892,11.28082 -19.53896,-11.28082 v -22.56163 l 19.53896,-11.28081 19.53893,11.28081 z m -39.07789,0 -19.53892,11.28082 -19.53897,-11.28082 v -22.56163 l 19.53897,-11.28081 19.53892,11.28081 z m -39.07785,0 -19.53894,11.28082 -19.53894,-11.28082 v -22.56163 l 19.53894,-11.28081 19.53894,11.28081 z m -39.0779,0 -19.53896,11.28082 -19.53893,-11.28082 v -22.56163 l 19.53893,-11.28081 19.53896,11.28081 z m -39.07789,0 -19.53892,11.28082 -19.53895,-11.28082 v -22.56163 l 19.53895,-11.28081 19.53892,11.28081 z m -39.07787,0 -19.53894,11.28082 -19.53895,-11.28082 v -22.56163 l 19.53895,-11.28081 19.53894,11.28081 z m -39.0779,0 -19.53896,11.28082 -19.53891,-11.28082 v -22.56163 l 19.53891,-11.28081 19.53896,11.28081 z m -39.07784,0 -19.53893,11.28082 -19.538958,-11.28082 v -22.56163 l 19.538958,-11.28081 19.53893,11.28081 z m -39.077888,0 -19.538934,11.28082 -19.538968,-11.28082 v -22.56163 l 19.538968,-11.28081 19.538934,11.28081 z m -39.077918,0 -19.538919,11.28082 -19.538951,-11.28082 v -22.56163 l 19.538951,-11.28081 19.538919,11.28081 z m -39.077838,0 L 0,285.42803 -19.538937,274.14721 V 251.58558 L 0,240.30477 19.538936,251.58558 Z m -39.077816,0 -19.538943,11.28082 -19.53894,-11.28082 v -22.56163 l 19.53894,-11.28081 19.538943,11.28081 z m -39.077845,0 -19.538944,11.28082 -19.53894,-11.28082 v -22.56163 l 19.53894,-11.28081 19.538944,11.28081 z m -39.077874,0 -19.538941,11.28082 -19.53894,-11.28082 v -22.56163 l 19.53894,-11.28081 19.538941,11.28081 z m -39.077871,0 -19.53895,11.28082 -19.53893,-11.28082 v -22.56163 l 19.53893,-11.28081 19.53895,11.28081 z"
       inkscape:connector-curvature="0" />
  </g>
</svg>
